<svg xmlns="http://www.w3.org/2000/svg" viewBox="0 0 48 48" width="48" height="48"><path fill="#455a64" d="M24,12c7.2,0,13,1.8,13,4s-5.8,5-13,5s-13-2.8-13-5S16.8,12,24,12z"/><path fill="#37474f" d="M34,21v21c0,2.2-4.5,4-10,4s-10-1.8-10-4V21H34z M24,2c-7.2,0-13,1.8-13,4s5.8,5,13,5s13-2.8,13-5 S31.2,2,24,2z M36,13.1H12v2.8c0,0,0,0,0,0.1c0,1.7,5.4,3,12,3s12-1.3,12-3c0-0.1,0-0.1,0-0.2V13.1z"/><path fill="#42a5f5" d="M24,10c4.2,0,7-0.5,8.9-1.1C33,8.8,33,8.6,33,8.5C33,6.6,29,5,24,5s-9,1.6-9,3.5 c0,0.1,0,0.3,0.1,0.4C17,9.5,19.8,10,24,10z"/><path fill="#546e7a" d="M24,10c-12,0-13-4-13-4v6.3c0,0,0,0,0.1,0.1c0.5,1.9,5.3,3.4,11.3,3.6c0,0,0,0,0.1,0 c0.5,0,1,0,1.5,0s1,0,1.5,0c0,0,0,0,0.1,0c6-0.2,10.8-1.7,11.3-3.6c0,0,0,0,0.1-0.1V6C37,6,36,10,24,10z M24,20c-7.2,0-13-1.8-13-4 v19c0,0,0.9,4,13,4s13-4,13-4V16C37,18.2,31.2,20,24,20z M27,32c0,1.6-1.3,3-3,3s-3-1.4-3-3v-6c0-1.7,1.3-3,3-3s3,1.3,3,3V32z"/><path fill="#90caf9" d="M28,9c-0.1,0-0.2,0-0.4-0.1C27,8.7,25.8,8.3,24,8.3c-1.8,0-3,0.4-3.6,0.6c-0.5,0.2-1.1,0-1.3-0.6 c-0.2-0.5,0-1.1,0.6-1.3c2.5-1,6.2-1,8.7,0c0.5,0.2,0.8,0.8,0.6,1.3C28.8,8.8,28.4,9,28,9z"/></svg>